<?xml version="1.0" standalone="no"?>
<!DOCTYPE svg PUBLIC "-//W3C//DTD SVG 20010904//EN"
 "http://www.w3.org/TR/2001/REC-SVG-20010904/DTD/svg10.dtd">
<svg version="1.0" xmlns="http://www.w3.org/2000/svg"
 width="460.000000pt" height="460.000000pt" viewBox="0 0 460.000000 460.000000"
 preserveAspectRatio="xMidYMid meet">
<metadata>
Created by potrace 1.14, written by Peter Selinger 2001-2017
</metadata>
<g transform="translate(0.000000,460.000000) scale(0.100000,-0.100000)"
fill="#000000" stroke="none">
<path d="M1 3791 c-1 -775 0 -812 16 -794 18 20 166 83 194 83 8 0 19 4 25 9
5 5 36 11 69 15 l60 6 -30 -24 c-16 -14 -40 -25 -52 -26 -49 0 -70 -23 -33
-35 20 -6 28 -35 10 -35 -5 0 -10 -9 -10 -20 0 -24 7 -25 53 -5 20 8 47 15 59
15 21 0 19 -4 -17 -35 -22 -19 -48 -37 -57 -40 -25 -9 -22 -32 4 -38 21 -6 21
-7 3 -27 -18 -20 -18 -20 3 -20 27 0 36 -15 22 -40 -7 -13 -7 -20 -1 -20 20 0
-1 -28 -29 -40 -25 -11 -27 -14 -17 -32 12 -20 4 -31 -54 -72 -9 -6 -19 -21
-23 -32 -5 -17 -2 -23 15 -27 17 -5 20 -10 14 -29 -4 -13 -8 -33 -8 -45 -1
-12 -5 -25 -9 -29 -5 -4 -8 -19 -8 -34 0 -39 -19 -89 -53 -140 -16 -24 -30
-58 -32 -75 -7 -89 -20 -134 -49 -177 -17 -27 -34 -48 -38 -48 -5 0 -9 -8 -10
-17 -1 -10 -5 45 -8 122 -3 77 -6 -362 -5 -975 0 -793 1 -879 2 -298 3 646 6
817 16 813 6 -2 25 -6 40 -10 20 -4 27 -10 23 -20 -3 -9 1 -15 9 -15 8 0 15 5
15 10 0 6 7 10 15 10 8 0 15 -4 15 -8 0 -5 20 -29 45 -55 l44 -47 7 35 c3 18
3 39 -1 45 -10 16 14 40 41 40 12 0 30 7 39 17 14 14 18 14 26 2 8 -12 11 -11
20 4 6 11 22 17 45 17 27 0 34 4 32 16 -2 11 7 20 27 27 17 5 43 21 58 33 16
13 39 24 51 24 12 0 34 13 49 28 30 31 35 47 12 39 -8 -4 -17 -2 -20 3 -4 6
-1 10 4 10 20 0 11 25 -11 35 -13 6 -23 17 -23 25 0 8 -7 18 -15 22 -9 4 1 7
23 7 43 1 50 18 10 26 -121 25 -136 43 -63 78 49 24 49 24 25 37 -29 15 -24
30 11 30 25 0 33 15 12 24 -9 3 -8 8 5 16 11 7 17 24 17 49 0 31 5 40 25 49
14 6 25 20 25 30 0 20 37 42 70 42 25 0 33 15 16 30 -8 6 -18 26 -21 43 -4 18
-13 42 -21 54 -12 19 -12 23 3 31 15 9 15 11 0 33 -12 16 -14 26 -6 36 6 7 8
20 5 29 -11 27 17 73 54 91 19 10 38 16 42 15 4 -1 5 19 1 45 l-6 46 21 -21
c12 -12 22 -26 22 -32 0 -5 1 -10 3 -10 1 0 28 -4 60 -10 32 -5 68 -5 80 -1
31 12 67 -7 67 -35 0 -13 -4 -26 -10 -29 -10 -6 -8 -55 4 -74 11 -16 26 -4 26
22 0 22 1 22 21 -3 16 -20 19 -34 14 -71 -4 -37 -2 -48 11 -53 25 -9 34 2 24
29 -6 16 -6 25 0 25 6 0 10 -5 10 -11 0 -7 11 -9 28 -6 15 3 38 -1 52 -8 14
-8 36 -14 49 -15 20 0 22 3 17 26 -6 23 -4 25 21 22 20 -2 28 -9 28 -23 0 -13
6 -20 17 -19 10 1 15 -2 12 -7 -3 -5 -18 -9 -34 -9 -43 0 -81 -18 -87 -40 -4
-14 -14 -20 -34 -20 -40 0 -38 -27 4 -35 38 -9 81 -35 56 -35 -8 0 -20 5 -26
11 -15 15 -33 3 -33 -21 0 -10 -8 -24 -17 -29 -15 -9 -13 -10 12 -11 17 0 40
-3 53 -6 24 -7 24 -14 6 -76 -4 -12 0 -18 10 -18 9 0 16 -6 16 -14 0 -9 12
-16 27 -18 18 -2 29 -10 31 -22 4 -20 5 -21 50 -76 24 -28 30 -48 35 -105 4
-38 11 -71 17 -73 5 -2 10 -26 10 -54 0 -44 2 -49 15 -38 8 7 15 23 15 35 0
12 7 28 15 35 8 7 15 22 15 34 0 11 9 32 20 46 11 14 20 31 20 38 0 7 14 26
30 42 25 25 34 28 51 20 16 -9 21 -7 28 13 9 23 12 24 93 19 66 -3 88 -8 106
-25 14 -13 26 -17 30 -12 4 6 27 21 50 34 35 18 52 22 84 17 24 -4 46 -2 54 4
7 6 25 10 41 8 36 -4 42 -32 14 -69 -28 -38 -27 -51 5 -43 17 4 25 3 21 -3 -4
-6 2 -18 13 -28 11 -10 20 -26 20 -36 0 -21 -50 -79 -68 -79 -11 0 -12 -3 -3
-14 17 -20 -17 -29 -78 -21 -68 9 -84 -7 -163 -169 -37 -74 -34 -91 15 -90 28
1 35 -2 27 -11 -7 -9 0 -12 30 -12 21 0 46 -5 54 -12 10 -8 16 -9 21 -1 4 6
13 7 23 2 26 -13 72 -9 82 8 8 12 12 12 18 2 6 -9 21 -11 50 -6 36 6 42 10 42
30 0 13 5 24 10 24 6 0 10 -4 10 -10 0 -5 11 -10 24 -10 20 0 25 5 24 28 -1
38 21 102 35 102 8 0 9 3 2 8 -10 6 -13 23 -18 92 -2 19 -9 26 -29 30 -26 5
-27 7 -15 30 19 37 41 36 62 -5 20 -35 42 -46 50 -23 2 7 9 32 15 56 7 27 16
42 26 42 9 0 26 12 37 28 12 15 41 48 64 73 24 25 43 51 43 57 0 6 8 16 19 21
24 13 45 91 24 91 -8 0 -19 -13 -24 -28 -13 -37 -62 -73 -107 -79 l-35 -5 37
33 37 32 -26 23 c-15 13 -33 20 -40 18 -7 -3 -16 0 -20 6 -6 9 -10 9 -16 -1
-8 -12 -10 -12 -18 0 -15 23 -41 5 -41 -29 0 -16 -4 -30 -8 -30 -14 0 -32 23
-32 42 0 10 -3 17 -8 17 -4 -1 -10 0 -14 1 -5 1 -11 3 -15 4 -5 1 -18 7 -30
14 -12 7 -26 12 -30 11 -23 -4 -31 3 -26 21 4 13 13 20 27 19 65 -6 126 2 126
15 0 9 7 12 20 9 16 -4 20 0 20 22 0 18 -6 28 -20 32 -11 3 -20 9 -20 13 0 20
13 40 26 40 8 0 14 9 14 19 0 11 10 28 23 38 34 28 59 71 44 76 -9 3 -9 9 1
27 10 16 11 25 3 33 -6 6 -11 28 -11 49 0 69 -85 155 -172 173 -15 3 -30 0
-33 -6 -5 -7 -25 -8 -55 -4 -38 5 -48 3 -53 -9 -4 -9 -24 -18 -47 -22 -23 -4
-48 -13 -56 -21 -7 -8 -19 -11 -25 -7 -7 4 -1 15 17 30 16 13 23 23 16 24 -29
0 -105 -67 -133 -118 -11 -19 -11 -27 0 -44 11 -17 10 -22 -1 -30 -10 -7 -10
-11 0 -15 6 -2 9 -9 6 -15 -3 -5 4 -12 16 -15 13 -3 19 -11 16 -19 -3 -8 -1
-14 5 -14 6 0 7 -5 3 -12 -5 -8 -2 -9 9 -5 10 3 17 2 17 -3 0 -5 -9 -11 -19
-15 -11 -3 -25 -13 -33 -22 -11 -14 -11 -15 7 -6 30 16 49 5 28 -15 -15 -16
-15 -17 0 -20 9 -2 17 -8 17 -13 0 -6 7 -17 15 -25 16 -17 20 -44 7 -44 -9 0
-32 -44 -32 -61 0 -6 5 -7 10 -4 5 3 10 14 10 25 0 10 7 21 16 24 13 5 14 -1
9 -42 l-6 -47 18 30 c17 29 18 29 21 7 3 -20 9 -23 35 -20 26 2 33 -1 35 -18
4 -25 -37 -42 -50 -21 -6 9 -13 6 -26 -11 l-17 -22 -13 21 c-7 11 -19 18 -27
15 -8 -3 -19 2 -23 11 -9 14 -12 14 -33 -6 -18 -17 -31 -21 -53 -17 -16 3 -35
1 -43 -5 -10 -9 -18 -8 -31 5 -10 9 -28 16 -40 16 -12 0 -22 5 -22 12 0 6 -3
8 -7 5 -3 -4 -14 0 -23 8 -13 12 -23 13 -44 5 -16 -6 -25 -6 -21 0 3 5 -4 19
-16 31 -16 16 -29 20 -53 15 -24 -4 -27 -3 -14 5 32 18 37 41 22 98 -9 35 -10
58 -4 66 5 6 7 21 3 33 -4 15 -1 22 10 22 8 0 18 6 21 13 3 6 15 26 26 42 11
17 24 40 29 51 5 12 17 24 25 27 9 4 16 11 16 16 0 13 48 61 60 61 5 0 15 12
22 27 7 14 22 31 33 37 11 6 22 14 25 17 12 14 42 17 70 7 27 -9 36 -7 68 16
21 14 52 29 70 32 17 4 32 10 32 15 0 9 21 4 57 -14 13 -6 25 -8 28 -5 8 8 9
120 1 173 -4 28 -7 76 -6 108 1 47 -2 57 -15 57 -13 0 -16 9 -15 38 3 62 1 71
-20 89 -12 11 -20 30 -20 50 0 17 -4 35 -10 38 -12 7 -50 92 -50 112 0 8 5 11
10 8 6 -3 10 -17 10 -31 0 -13 5 -24 11 -24 11 0 11 6 -10 85 -6 22 -11 60
-11 84 0 25 -7 52 -15 61 -8 9 -16 30 -18 46 -6 52 -24 82 -54 88 -59 11 -106
11 -111 -2 -2 -7 6 -12 23 -12 23 0 25 -2 15 -14 -12 -15 -40 -11 -52 8 -5 8
-11 7 -20 -2 -6 -6 -31 -12 -54 -12 -31 0 -45 -5 -55 -21 -10 -14 -25 -20 -49
-21 -19 0 -40 -5 -47 -10 -7 -5 -17 -7 -23 -3 -6 3 -25 -1 -43 -10 -17 -9 -58
-19 -89 -22 -52 -5 -60 -3 -78 18 l-20 24 32 28 c18 15 37 27 43 27 5 0 16 9
23 20 7 12 17 18 23 14 6 -3 16 1 22 9 13 17 133 67 160 67 9 0 36 7 61 15 25
9 78 19 118 23 81 8 100 27 51 52 -15 8 -36 21 -46 29 -15 12 -17 12 -17 -4 0
-10 -3 -16 -6 -13 -3 3 -6 45 -6 92 -1 48 -5 89 -9 92 -4 2 -6 20 -4 39 2 19
-1 35 -6 35 -8 0 -14 -38 -10 -62 0 -4 -6 -5 -13 -2 -11 4 -13 0 -9 -15 3 -11
9 -18 14 -15 16 10 9 -13 -9 -29 -27 -25 -42 -21 -42 12 0 32 -22 61 -46 61
-8 0 -14 8 -15 18 0 13 -2 13 -9 -4 -10 -25 -30 -41 -30 -25 0 6 -9 11 -20 11
-15 0 -20 7 -20 25 0 16 6 25 16 25 27 0 84 31 84 46 0 7 20 52 45 99 24 47
42 85 39 85 -3 0 3 12 14 28 11 15 21 42 24 60 l5 32 -893 0 c-557 0 -895 -4
-899 -10 -3 -5 -12 -7 -20 -3 -9 3 -15 -1 -16 -8 0 -8 -4 -5 -9 6 -5 11 -9
-330 -9 -794z m16 642 c-2 -21 -4 -4 -4 37 0 41 2 58 4 38 2 -21 2 -55 0 -75z
m1675 -48 c0 -5 -5 -11 -11 -13 -6 -2 -11 4 -11 13 0 9 5 15 11 13 6 -2 11 -8
11 -13z m-434 -50 c16 -35 15 -38 -8 -18 -11 10 -20 23 -20 30 0 22 16 14 28
-12z m-611 -122 c124 -55 170 -76 183 -84 8 -5 25 -13 38 -19 12 -5 22 -18 22
-29 0 -18 -5 -17 -77 11 -43 16 -87 33 -98 38 -11 5 -52 18 -92 28 -80 22
-131 47 -77 38 18 -3 44 -8 59 -12 19 -5 26 -3 21 4 -3 6 -20 13 -36 17 -16 4
-32 11 -35 16 -10 15 52 10 92 -8z m233 -39 c0 -7 11 -21 25 -30 14 -9 25 -21
25 -28 0 -11 35 -38 55 -42 18 -3 91 -79 103 -107 26 -60 7 -90 -25 -39 -18
28 -43 51 -55 52 -8 0 46 -96 68 -121 19 -21 18 -46 -3 -59 -13 -8 -14 -13 -5
-16 6 -3 12 -10 12 -15 0 -6 -7 -6 -18 0 -15 8 -62 5 -62 -4 0 -1 8 -27 19
-58 10 -32 16 -57 14 -57 -3 0 -16 9 -30 20 -28 22 -43 18 -43 -11 0 -26 -22
-24 -48 6 -28 32 -42 32 -42 -1 0 -23 -2 -25 -16 -13 -13 10 -17 10 -25 -2 -8
-12 -12 -11 -23 4 -8 10 -22 20 -30 21 -9 1 -16 6 -15 10 2 12 -53 66 -84 83
-16 8 -26 17 -23 21 4 3 12 0 18 -6 24 -24 31 -11 7 14 l-24 27 30 -19 c30
-20 29 -9 -3 29 -11 12 -12 21 -5 28 8 8 26 4 63 -15 29 -15 55 -24 58 -21 3
3 3 6 1 8 -71 52 -85 68 -87 95 -2 30 -1 31 35 25 l38 -6 -20 22 -19 22 29
-11 c16 -6 36 -16 45 -23 10 -8 9 -5 -2 9 -12 14 -14 24 -7 31 7 7 -5 23 -36
52 -25 23 -45 43 -45 45 0 7 44 -7 65 -19 11 -7 32 -15 48 -19 15 -4 27 -13
27 -20 0 -8 11 -16 25 -18 14 -3 25 -1 25 4 0 17 -42 133 -56 155 -18 29 -18
39 1 23 8 -7 15 -19 15 -26z m312 -70 c36 -57 43 -90 18 -97 -36 -9 -56 33
-65 141 -5 55 -4 56 9 26 7 -17 25 -48 38 -70z m315 49 c-3 -10 -5 -4 -5 12 0
17 2 24 5 18 2 -7 2 -21 0 -30z m-207 -40 c0 -7 -4 -13 -10 -13 -5 0 -10 12
-10 28 0 21 2 24 10 12 5 -8 10 -21 10 -27z m-180 11 c0 -8 -4 -12 -10 -9 -5
3 -10 10 -10 16 0 5 5 9 10 9 6 0 10 -7 10 -16z m133 -4 c3 -11 1 -20 -4 -20
-5 0 -9 9 -9 20 0 11 2 20 4 20 2 0 6 -9 9 -20z m15 -75 c-3 -3 -9 2 -12 12
-6 14 -5 15 5 6 7 -7 10 -15 7 -18z m-508 -393 c19 -9 36 -25 38 -34 3 -16 -3
-15 -47 7 -28 14 -53 30 -56 35 -10 15 26 11 65 -8z m705 -12 c3 -5 1 -10 -4
-10 -6 0 -11 5 -11 10 0 6 2 10 4 10 3 0 8 -4 11 -10z m-1065 -20 c0 -5 -4
-10 -10 -10 -5 0 -10 5 -10 10 0 6 5 10 10 10 6 0 10 -4 10 -10z m1017 -16 c6
-16 -12 -34 -34 -34 -7 0 -13 9 -13 19 0 18 12 28 33 30 4 1 10 -6 14 -15z
m-999 -55 c28 -7 52 -16 52 -20 0 -17 -33 -16 -84 2 -31 10 -62 19 -70 19 -8
0 -18 5 -22 11 -8 13 38 8 124 -12z m336 15 c9 -3 16 -10 16 -16 0 -14 -43 -5
-48 10 -4 13 7 15 32 6z m1323 -46 c-3 -8 -6 -5 -6 6 -1 11 2 17 5 13 3 -3 4
-12 1 -19z m-346 -84 c16 -14 22 -15 28 -5 14 23 48 -8 76 -70 14 -31 25 -61
25 -67 0 -6 6 -12 12 -14 10 -4 10 -17 1 -59 -7 -37 -8 -58 -1 -67 15 -18 2
-99 -21 -128 -11 -14 -17 -32 -14 -40 3 -8 0 -14 -6 -14 -6 0 -11 5 -11 12 0
9 -3 9 -12 0 -8 -8 -8 -15 2 -27 14 -16 3 -20 -19 -6 -7 5 -10 14 -7 20 4 6 0
11 -10 11 -14 0 -15 3 -6 12 7 7 12 21 12 32 0 16 -3 17 -12 8 -20 -20 -26
-13 -18 22 4 19 4 40 -1 47 -6 9 -9 1 -9 -23 0 -39 -15 -49 -38 -26 -9 9 -12
9 -12 0 0 -17 -101 -16 -134 1 -14 8 -23 17 -20 20 4 3 -7 9 -22 12 -58 13
-60 17 -22 34 39 17 53 37 18 26 -10 -3 -28 -1 -40 5 -25 13 -27 50 -2 50 16
1 16 1 -1 14 -14 11 -15 15 -5 19 11 5 11 7 0 15 -11 7 -10 11 5 16 16 7 14
10 -12 24 l-30 16 45 11 c41 10 43 12 20 18 -22 6 -23 9 -10 20 8 6 15 18 16
25 2 29 5 32 29 32 14 0 25 4 25 8 0 5 12 7 28 5 19 -3 31 2 41 15 18 25 82
23 112 -4z m-1328 -15 c118 -24 152 -38 92 -39 l-40 -1 34 -18 35 -19 -74 -4
c-101 -5 -130 0 -130 23 0 11 -7 19 -15 19 -8 0 -19 9 -25 20 -6 11 -18 20
-26 20 -8 0 -12 5 -9 10 9 15 45 12 158 -11z m-180 -86 c-7 -2 -19 -2 -25 0
-7 3 -2 5 12 5 14 0 19 -2 13 -5z m99 -13 c30 0 37 -4 40 -22 2 -18 12 -24 41
-29 20 -3 41 -9 45 -14 4 -4 -5 -5 -20 -1 -17 4 -43 0 -65 -9 -36 -15 -119
-11 -93 5 6 4 -12 10 -40 14 l-52 7 33 30 c23 20 40 28 54 25 11 -3 37 -6 57
-6z m-217 -60 c-3 -5 -16 -10 -28 -10 -18 0 -19 2 -7 10 20 13 43 13 35 0z
m95 -140 c-20 -13 -53 -13 -45 0 3 6 18 10 33 10 21 0 24 -2 12 -10z m1220
-30 c0 -5 -4 -10 -10 -10 -5 0 -10 5 -10 10 0 6 5 10 10 10 6 0 10 -4 10 -10z
m496 -52 c-3 -16 -1 -38 4 -49 13 -22 4 -25 -16 -5 -8 8 -14 33 -14 55 0 33 3
39 16 34 12 -4 14 -14 10 -35z m-476 22 c0 -5 12 -10 28 -11 24 0 24 -1 7 -8
-11 -5 -36 -11 -55 -15 -31 -6 -33 -5 -17 7 9 8 17 19 17 26 0 6 5 11 10 11 6
0 10 -4 10 -10z m531 -50 c5 0 9 -7 9 -15 0 -8 -4 -15 -10 -15 -15 0 -28 31
-21 54 5 21 6 21 9 -1 2 -13 8 -23 13 -23z m-81 -34 c0 -3 -4 -8 -10 -11 -5
-3 -10 -1 -10 4 0 6 5 11 10 11 6 0 10 -2 10 -4z m-285 -129 c10 -8 15 -19 11
-25 -15 -25 -63 -4 -53 22 8 20 18 20 42 3z m45 -272 c0 -8 -7 -15 -16 -15
-14 0 -14 3 -4 15 7 8 14 15 16 15 2 0 4 -7 4 -15z m-31 -34 c18 -12 1 -42
-60 -104 -27 -28 -49 -56 -49 -64 0 -8 -11 -27 -25 -41 -14 -15 -24 -30 -23
-33 8 -17 -28 -39 -63 -39 -41 0 -48 7 -27 28 10 10 10 17 1 32 -11 17 -9 20
22 31 22 8 30 16 23 20 -7 5 -17 4 -23 0 -5 -5 -27 -12 -49 -15 -50 -9 -45 14
6 29 20 5 40 13 44 18 4 4 22 7 41 7 20 0 33 5 33 13 0 7 9 18 20 25 11 7 17
18 14 27 -4 10 0 15 10 15 9 0 30 14 46 30 31 32 38 34 59 21z m666 -39 c-9
-9 -25 11 -25 31 1 21 1 21 15 -3 7 -14 12 -27 10 -28z m-1025 18 c0 -5 -5
-10 -11 -10 -5 0 -7 5 -4 10 3 6 8 10 11 10 2 0 4 -4 4 -10z m1057 -36 c-3 -3
-12 -4 -19 -1 -8 3 -5 6 6 6 11 1 17 -2 13 -5z m33 -13 c0 -12 -20 -25 -27
-18 -7 7 6 27 18 27 5 0 9 -4 9 -9z m89 0 c9 -6 10 -11 2 -15 -6 -4 -11 -19
-11 -33 l0 -27 -20 22 c-37 40 -15 81 29 53z m-1093 -237 c-4 -9 -9 -15 -11
-12 -3 3 -3 13 1 22 4 9 9 15 11 12 3 -3 3 -13 -1 -22z m834 -24 c0 -5 -2 -10
-4 -10 -3 0 -8 5 -11 10 -3 6 -1 10 4 10 6 0 11 -4 11 -10z m203 -185 c4 -24
4 -52 1 -60 -8 -21 -51 -15 -45 5 3 8 5 29 5 45 2 66 31 73 39 10z m148 -48
c-13 -12 -20 -15 -15 -7 12 22 28 39 33 34 3 -3 -6 -15 -18 -27z m-191 -62 c0
-8 -7 -15 -15 -15 -26 0 -18 20 13 29 1 1 2 -6 2 -14z m-62 -158 c2 -10 -5
-20 -15 -24 -10 -3 -26 -13 -35 -21 -9 -8 -23 -12 -30 -10 -7 3 -28 -4 -46
-14 -38 -21 -76 -24 -69 -5 2 6 13 11 24 9 11 -1 26 4 33 13 7 8 19 15 26 15
20 0 56 22 72 43 16 21 36 18 40 -6z m-235 -49 c7 -21 -4 -38 -24 -38 -14 0
-19 7 -19 25 0 18 5 25 19 25 11 0 21 -6 24 -12z m187 -38 c0 -9 -40 -30 -56
-30 -13 0 -1 17 19 26 30 15 37 16 37 4z"/>
<path d="M1696 3158 c-9 -36 -7 -48 8 -48 18 0 29 31 20 54 -9 23 -21 20 -28
-6z"/>
<path d="M1651 3134 c0 -11 3 -14 6 -6 3 7 2 16 -1 19 -3 4 -6 -2 -5 -13z"/>
<path d="M1841 3082 c-6 -12 -11 -29 -11 -39 1 -11 7 -4 16 16 16 37 12 55 -5
23z"/>
<path d="M1802 3055 c0 -16 2 -22 5 -12 2 9 2 23 0 30 -3 6 -5 -1 -5 -18z"/>
<path d="M1891 4569 c-6 -17 -8 -35 -6 -39 3 -5 -4 -15 -15 -23 -22 -15 -90
-137 -90 -161 0 -8 -4 -16 -8 -18 -5 -1 -12 -15 -15 -29 -9 -38 20 -49 33 -13
6 14 21 40 35 58 14 18 25 38 25 44 0 7 4 12 9 12 5 0 12 17 15 38 10 54 17
73 24 68 4 -2 14 18 24 45 15 47 15 49 -2 49 -11 0 -22 -12 -29 -31z"/>
<path d="M2626 4519 c-14 -44 -26 -87 -26 -95 0 -8 -8 -14 -19 -14 -20 0 -31
26 -31 78 0 54 -32 35 -45 -26 -5 -23 -11 -32 -21 -28 -8 3 -14 -1 -14 -9 0
-28 -19 -15 -28 18 l-9 32 -8 -45 c-7 -40 -14 -155 -15 -250 0 -28 -6 -39 -30
-55 -32 -22 -47 -66 -36 -110 7 -26 0 -31 -24 -15 -9 6 -20 5 -29 -3 -12 -9
-13 -9 -7 1 4 6 4 12 -1 12 -4 0 -14 -14 -22 -30 -9 -21 -22 -33 -41 -37 -16
-3 -31 -11 -34 -19 -3 -8 -13 -14 -21 -14 -17 0 -51 -28 -43 -35 2 -2 35 -5
73 -6 78 -1 206 -25 215 -39 3 -5 18 -13 33 -19 15 -6 27 -17 27 -26 0 -9 9
-15 23 -15 24 0 77 -40 77 -59 0 -6 5 -11 10 -11 6 0 20 -21 31 -46 15 -36 17
-50 8 -60 -16 -19 5 -18 25 1 8 8 20 15 28 15 7 0 2 -7 -10 -16 -12 -8 -26
-23 -31 -33 -9 -15 -6 -17 21 -16 31 2 31 2 10 -15 -16 -13 -22 -33 -27 -82
-5 -61 -4 -65 20 -78 14 -7 25 -19 25 -27 0 -7 5 -13 10 -13 6 0 10 -7 10 -15
0 -8 4 -15 8 -15 5 0 9 -15 9 -32 2 -59 15 -97 34 -103 23 -8 25 -27 3 -23
-10 2 -19 -3 -21 -9 -4 -12 12 -17 47 -15 14 1 30 -15 30 -30 0 -3 -8 -4 -18
-1 -10 2 -24 -3 -31 -11 -18 -22 -29 -20 -34 7 -3 21 -4 21 -15 -5 -13 -32
-40 -48 -80 -48 -22 0 -31 -6 -35 -21 -3 -12 -10 -18 -16 -14 -13 7 -54 -19
-45 -28 4 -4 -1 -9 -10 -13 -9 -3 -16 -13 -16 -21 0 -9 -6 -13 -15 -9 -8 3
-15 1 -15 -4 0 -6 -11 -10 -25 -10 -30 0 -31 -4 -3 -43 16 -25 166 -177 174
-177 0 0 18 -16 39 -36 73 -68 111 -86 194 -90 l77 -4 54 52 c30 29 54 62 54
73 1 11 -8 38 -20 61 -19 38 -20 42 -5 70 9 16 26 39 37 51 25 24 84 41 84 24
0 -6 9 -11 20 -11 11 0 20 -4 20 -10 0 -5 11 -10 25 -10 25 0 33 -14 15 -25
-5 -3 -3 -13 6 -23 37 -42 64 -81 64 -91 0 -6 11 -13 24 -17 19 -4 25 -14 29
-47 4 -30 2 -44 -10 -52 -17 -13 -45 -128 -33 -133 4 -2 5 -22 3 -45 -4 -31
-1 -46 11 -56 9 -7 16 -18 16 -23 0 -5 9 -21 20 -35 11 -14 20 -34 20 -44 0
-10 9 -24 20 -31 11 -7 20 -18 20 -25 0 -6 9 -18 21 -26 17 -12 19 -19 10 -35
-8 -15 -6 -33 9 -75 11 -31 20 -65 20 -76 0 -10 7 -24 15 -31 8 -7 15 -17 15
-22 0 -5 26 -52 58 -106 53 -90 96 -178 109 -227 5 -16 0 -15 -26 10 -29 27
-33 28 -42 13 -14 -26 -32 -22 -58 12 -24 33 -41 32 -41 -3 0 -13 -9 -31 -21
-41 -19 -15 -20 -24 -14 -72 4 -34 3 -54 -4 -54 -5 0 -12 10 -14 22 -2 13 -2
-3 1 -36 3 -41 1 -57 -7 -52 -16 10 -14 -18 4 -61 19 -44 19 -43 -5 -43 -12 0
-20 -7 -20 -16 0 -13 -3 -14 -14 -5 -22 18 -28 0 -34 -101 -4 -70 -8 -88 -19
-84 -9 4 -12 -1 -10 -17 2 -12 2 -17 0 -12 -6 15 -57 37 -61 26 -2 -6 -9 -8
-16 -5 -24 9 -26 -65 -5 -112 10 -22 19 -45 19 -51 0 -6 11 -18 24 -26 26 -17
57 -13 96 13 51 33 81 42 99 28 9 -7 13 -9 9 -4 -4 5 -3 18 3 28 8 16 17 19
40 14 20 -4 29 -2 29 7 0 23 24 45 57 52 29 6 32 4 38 -24 5 -25 9 -28 19 -18
7 6 15 20 19 30 8 21 57 24 57 3 0 -7 6 -19 14 -25 9 -7 17 -43 21 -91 4 -44
11 -80 15 -80 12 0 30 58 30 94 0 17 -9 46 -20 64 -25 40 -26 84 -2 104 25 23
80 32 98 17 13 -11 18 -10 25 4 14 24 29 21 29 -5 1 -15 16 -35 46 -57 48 -36
53 -56 7 -25 -45 30 -71 42 -77 36 -9 -8 -7 -52 2 -52 4 -1 27 -5 51 -9 28 -6
51 -5 61 1 11 7 31 2 76 -21 34 -17 69 -31 77 -31 9 0 19 -4 22 -10 3 -5 1
-10 -5 -10 -38 0 29 -49 140 -101 25 -12 52 -25 61 -30 9 -4 33 -11 53 -14 20
-4 39 -11 42 -16 3 -5 9 -7 14 -4 5 3 18 -7 29 -21 l21 -27 0 1137 c0 986 -2
1139 -15 1152 -15 16 -74 36 -165 59 -122 30 -185 49 -191 57 -3 5 -31 13 -61
17 -36 5 -63 15 -79 30 -20 19 -31 22 -71 17 -27 -3 -48 -2 -48 2 0 5 -23 13
-50 18 -42 9 -57 8 -90 -7 -22 -10 -40 -24 -40 -32 0 -8 -11 -22 -25 -31 -20
-13 -24 -22 -19 -41 6 -25 5 -25 -60 -25 -75 0 -136 23 -136 52 0 10 -4 18
-10 18 -5 0 -9 8 -8 18 3 37 -3 51 -23 54 -14 2 -25 15 -33 38 -10 33 -14 35
-49 32 -28 -3 -37 0 -37 12 0 25 30 46 66 46 38 0 39 2 22 29 -8 13 -8 28 0
57 19 68 81 248 92 266 5 10 10 23 10 30 0 10 33 90 80 193 18 39 243 495 259
525 4 8 18 38 31 65 13 28 28 58 32 68 7 14 4 17 -21 17 -25 0 -32 -5 -37 -27
-4 -16 -24 -55 -46 -87 -21 -33 -38 -70 -38 -82 0 -13 -6 -27 -14 -31 -7 -4
-26 -36 -41 -70 -15 -35 -34 -63 -41 -63 -8 0 -13 -3 -12 -7 1 -5 -4 -18 -11
-31 -7 -13 -10 -30 -7 -38 3 -9 1 -12 -4 -9 -6 3 -14 -5 -19 -18 -6 -14 -14
-28 -19 -31 -6 -3 -13 -18 -16 -32 -11 -41 -49 -118 -63 -127 -7 -4 -13 -21
-13 -37 0 -17 -4 -30 -9 -30 -5 0 -14 -15 -21 -32 -8 -18 -18 -39 -24 -47 -14
-18 -35 -94 -42 -151 -2 -25 -9 -49 -14 -54 -6 -6 -10 -16 -10 -24 0 -20 -39
-52 -62 -52 -10 0 -21 7 -24 15 -5 11 -21 15 -58 14 -55 0 -58 2 38 -37 31
-13 35 -17 20 -23 -11 -4 -29 -1 -42 8 -18 11 -50 14 -128 12 -64 -2 -108 1
-115 8 -14 14 -5 19 62 37 51 14 52 15 17 15 -20 1 -54 -9 -76 -20 -45 -24
-84 -20 -62 6 7 8 18 15 26 15 22 0 27 21 8 36 -21 15 -21 15 33 52 15 10 8
12 -48 9 -61 -3 -66 -1 -61 17 3 11 -2 24 -11 31 -14 10 -12 14 21 33 40 22
89 69 81 77 -3 3 -37 -2 -75 -10 -38 -8 -75 -15 -81 -15 -21 0 -6 85 23 131
18 29 21 40 11 36 -23 -9 -41 17 -22 33 9 8 14 27 13 56 -3 50 -19 57 -37 18
-19 -43 -23 -21 -5 27 9 24 31 58 48 74 18 17 38 46 45 65 14 39 56 196 75
281 7 31 16 61 20 67 5 9 -50 12 -217 12 l-225 0 -26 -81z m74 -84 c-12 -15
-30 -12 -30 6 0 5 10 9 21 9 18 0 19 -2 9 -15z m220 -86 c-23 -32 -21 -50 4
-30 25 21 15 -29 -11 -57 -24 -26 -31 -15 -13 19 8 15 7 19 -5 19 -22 0 -18
16 12 50 34 39 40 38 13 -1z m-17 -324 c-3 -9 -8 -14 -10 -11 -3 3 -2 9 2 15
9 16 15 13 8 -4z m27 -85 c0 -5 -4 -10 -10 -10 -5 0 -10 5 -10 10 0 6 5 10 10
10 6 0 10 -4 10 -10z m400 -469 c0 -19 -50 -48 -109 -65 -49 -14 -65 -15 -83
-5 -21 11 -14 15 72 44 105 36 120 39 120 26z m-615 -491 c3 -6 -1 -13 -9 -16
-20 -8 -46 -93 -51 -169 -4 -57 -14 -81 -22 -57 -3 7 -24 26 -48 42 -43 29
-43 30 -33 70 13 48 79 114 107 105 13 -4 20 1 24 15 5 21 22 27 32 10z m5
-120 c0 -5 7 -10 15 -10 8 0 15 -6 15 -14 0 -10 -10 -14 -30 -14 -25 1 -30 5
-30 25 0 14 6 23 15 23 8 0 15 -4 15 -10z m220 -240 c0 -5 -5 -10 -11 -10 -5
0 -7 5 -4 10 3 6 8 10 11 10 2 0 4 -4 4 -10z m1164 -1400 c44 -57 42 -73 -3
-39 -24 17 -51 63 -51 85 0 15 22 -4 54 -46z"/>
<path d="M2940 3864 c0 -8 5 -12 10 -9 6 4 8 11 5 16 -9 14 -15 11 -15 -7z"/>
<path d="M2105 2760 c-3 -5 1 -10 9 -10 8 0 18 5 21 10 3 6 -1 10 -9 10 -8 0
-18 -4 -21 -10z"/>
<path d="M2 2550 c0 -19 2 -27 5 -17 2 9 2 25 0 35 -3 9 -5 1 -5 -18z"/>
<path d="M1076 2505 c4 -8 8 -15 10 -15 2 0 4 7 4 15 0 8 -4 15 -10 15 -5 0
-7 -7 -4 -15z"/>
<path d="M1200 2430 c0 -5 5 -10 11 -10 5 0 7 5 4 10 -3 6 -8 10 -11 10 -2 0
-4 -4 -4 -10z"/>
<path d="M70 2111 c-6 -12 -7 -21 -1 -21 10 0 24 30 17 37 -2 3 -9 -5 -16 -16z"/>
<path d="M1580 1940 c0 -5 7 -10 15 -10 8 0 15 5 15 10 0 6 -7 10 -15 10 -8 0
-15 -4 -15 -10z"/>
<path d="M1713 1823 c-7 -2 -13 -9 -13 -15 0 -6 -11 -26 -25 -44 -14 -18 -25
-37 -25 -42 0 -10 -33 -82 -75 -164 -14 -27 -32 -48 -40 -48 -8 0 -15 -7 -15
-16 0 -9 -6 -28 -14 -42 -8 -15 -17 -36 -21 -46 -8 -26 -21 -10 -29 36 -5 26
-2 40 9 51 16 17 21 87 5 87 -5 0 -12 16 -16 35 l-6 35 -19 -37 c-19 -40 -43
-129 -60 -222 -5 -30 -18 -75 -29 -100 -27 -66 -38 -117 -39 -185 -1 -32 -7
-77 -15 -101 -8 -23 -18 -80 -21 -126 -5 -72 -4 -89 13 -119 10 -19 31 -41 46
-48 14 -7 26 -19 26 -27 0 -7 14 -24 31 -36 28 -20 34 -21 72 -8 23 7 56 22
72 34 38 25 95 86 95 101 0 6 7 17 15 24 22 18 45 69 38 86 -3 9 1 14 12 14 9
0 13 -4 10 -10 -3 -5 -3 -10 0 -10 3 0 13 16 21 37 14 33 14 37 0 45 -8 5 -18
24 -22 43 -3 20 -10 38 -15 41 -5 2 -13 24 -19 47 -26 101 -36 130 -47 134 -9
4 -13 32 -12 97 0 113 11 183 31 199 9 6 23 37 33 67 10 30 22 64 28 75 11 21
22 44 52 107 23 48 10 68 -32 51z m-343 -902 c0 -17 -18 -21 -24 -6 -3 9 0 15
9 15 8 0 15 -4 15 -9z m110 -206 c0 -8 7 -15 15 -15 8 0 15 -4 15 -10 0 -5 -4
-10 -9 -10 -5 0 -16 -3 -25 -6 -11 -4 -19 2 -25 17 -5 13 -7 27 -4 32 8 13 33
7 33 -8z"/>
<path d="M222 1425 c0 -16 2 -22 5 -12 2 9 2 23 0 30 -3 6 -5 -1 -5 -18z"/>
<path d="M174 1345 c-10 -8 -14 -15 -8 -15 6 0 17 7 24 15 16 19 9 19 -16 0z"/>
<path d="M3088 1240 c-10 -9 -18 -21 -18 -27 0 -6 -7 -16 -15 -23 -8 -7 -15
-20 -15 -29 0 -10 -13 -33 -30 -51 -16 -18 -30 -37 -30 -41 0 -4 -6 -14 -13
-21 -31 -32 -57 -78 -56 -100 1 -16 3 -18 6 -5 2 9 11 17 18 17 7 0 16 6 18
13 4 10 6 10 6 0 2 -24 19 -13 24 16 5 23 10 28 26 24 22 -6 80 -83 74 -99 -2
-6 3 -17 12 -24 15 -13 21 -50 7 -50 -4 0 -12 10 -17 22 -7 16 -19 23 -42 24
-32 2 -32 1 -15 -21 9 -12 23 -20 29 -18 17 6 17 -29 1 -45 -17 -17 -4 -24 26
-13 14 6 26 17 26 26 0 8 7 15 15 15 9 0 18 7 21 15 4 8 12 15 20 15 20 0 17
13 -16 70 -16 28 -30 53 -30 56 0 2 -11 22 -25 44 -27 43 -29 50 -16 50 5 0
16 -16 25 -35 26 -55 40 -45 31 23 -4 31 -10 85 -14 119 -3 34 -9 64 -11 66
-3 2 -13 -3 -22 -13z"/>
<path d="M2555 1009 c-3 -35 -5 -91 -3 -124 l3 -60 19 58 c14 42 17 72 13 113
-9 83 -24 89 -32 13z"/>
<path d="M1755 1049 c-4 -6 -5 -12 -2 -15 2 -3 7 2 10 11 7 17 1 20 -8 4z"/>
<path d="M3000 981 c0 -6 5 -13 10 -16 6 -3 10 1 10 9 0 9 -4 16 -10 16 -5 0
-10 -4 -10 -9z"/>
<path d="M2865 920 c-7 -12 2 -30 16 -30 12 0 12 27 0 35 -5 3 -12 1 -16 -5z"/>
<path d="M2970 820 c0 -5 5 -10 11 -10 5 0 7 5 4 10 -3 6 -8 10 -11 10 -2 0
-4 -4 -4 -10z"/>
<path d="M2992 789 c2 -7 10 -15 17 -17 8 -3 12 1 9 9 -2 7 -10 15 -17 17 -8
3 -12 -1 -9 -9z"/>
<path d="M2920 714 c1 -5 7 -20 15 -34 13 -24 14 -24 15 -4 0 12 -7 27 -15 34
-8 7 -15 9 -15 4z"/>
<path d="M2620 621 c0 -11 -4 -23 -10 -26 -5 -3 -10 -15 -10 -27 0 -11 -8 -22
-20 -25 -14 -4 -20 -14 -20 -33 0 -15 -3 -42 -6 -59 -6 -27 -4 -31 15 -31 18
0 20 4 15 34 -3 21 0 37 7 42 8 5 10 -2 7 -23 -4 -29 -4 -29 24 -16 28 15 38
33 16 33 -6 0 -1 8 10 19 22 18 32 78 12 66 -5 -3 -10 -15 -10 -26 0 -10 -4
-19 -9 -19 -15 0 -23 18 -11 25 13 8 13 72 0 80 -5 3 -10 -3 -10 -14z"/>
<path d="M1075 571 c-3 -5 -1 -12 5 -16 5 -3 10 1 10 9 0 18 -6 21 -15 7z"/>
<path d="M1128 563 c7 -3 16 -2 19 1 4 3 -2 6 -13 5 -11 0 -14 -3 -6 -6z"/>
<path d="M1141 539 c-52 -10 -77 -27 -61 -43 16 -16 13 -139 -5 -162 -14 -18
-14 -18 -15 9 0 43 -45 37 -93 -13 -20 -22 -43 -40 -51 -40 -8 0 -16 -21 -22
-57 -8 -50 -12 -58 -31 -58 -13 0 -28 -6 -35 -13 -7 -7 -24 -12 -39 -12 -15 0
-32 -6 -39 -14 -6 -8 -18 -12 -26 -9 -7 3 -17 -2 -20 -11 -3 -9 -12 -16 -20
-16 -8 0 -14 -7 -14 -16 0 -13 -3 -14 -15 -4 -16 14 -35 6 -35 -16 0 -19 -26
-18 -34 1 -5 14 -9 14 -33 2 -16 -8 -34 -12 -40 -10 -7 3 -13 -3 -13 -13 0
-15 -3 -14 -25 6 -14 13 -25 29 -25 35 0 16 -35 47 -43 38 -12 -11 -8 -54 9
-89 l16 -34 944 0 c519 0 944 4 944 8 0 28 -55 43 -77 21 -9 -9 -16 -8 -28 5
-20 19 -32 20 -38 3 -4 -9 -6 -9 -6 0 -2 24 97 163 116 163 7 0 13 7 13 15 0
8 5 15 10 15 21 0 -32 41 -60 46 -16 4 -31 14 -33 23 -3 10 -7 4 -12 -16 -12
-52 -30 -42 -26 14 1 11 -2 24 -8 27 -6 4 -8 14 -5 24 5 14 3 14 -10 -2 -16
-20 -16 -20 -31 0 -8 10 -15 25 -15 32 0 9 -10 12 -27 10 -19 -2 -29 -10 -33
-27 -3 -14 -12 -27 -19 -29 -10 -3 -12 2 -7 23 4 14 3 25 -1 23 -52 -25 -63
-34 -63 -50 0 -11 -4 -16 -10 -13 -5 3 -10 17 -10 31 0 14 -4 22 -10 19 -5 -3
-10 -20 -10 -37 0 -23 -4 -29 -16 -24 -9 3 -18 6 -20 6 -3 0 -9 12 -15 27
l-10 27 -23 -27 c-21 -24 -26 -25 -50 -14 -14 6 -26 19 -25 27 3 35 -1 41 -18
31 -10 -5 -30 -9 -45 -9 -15 0 -40 -8 -54 -18 -15 -11 -35 -24 -45 -30 -10 -6
-27 -18 -37 -27 -10 -10 -25 -17 -32 -17 -8 0 7 22 33 48 52 53 56 64 28 94
l-20 21 -7 -27 c-3 -14 -10 -23 -16 -20 -5 3 -15 -2 -23 -12 -17 -24 -30 -12
-16 14 16 29 14 52 -3 46 -8 -3 -19 3 -26 16 -6 11 -15 18 -21 15 -14 -9 -11
-25 6 -25 8 0 15 -7 15 -15 0 -17 -18 -19 -40 -5 -9 5 -19 5 -26 -1 -9 -7 -16
-4 -24 11 -6 12 -18 19 -25 16 -7 -2 -16 3 -20 12 -5 14 -7 14 -16 2 -7 -12
-10 -11 -15 8 -5 17 -11 21 -26 16 -13 -4 -27 3 -44 21 -13 14 -29 23 -34 20
-6 -3 -10 -1 -10 4 0 6 -3 11 -7 10 -5 -1 -28 -5 -52 -10z m1093 -310 c-6 -11
-24 -2 -24 11 0 5 7 7 15 4 8 -4 12 -10 9 -15z m-1284 -33 c0 -2 -8 -10 -17
-17 -16 -13 -17 -12 -4 4 13 16 21 21 21 13z m370 -157 c0 -5 -7 -9 -15 -9
-15 0 -20 12 -9 23 8 8 24 -1 24 -14z"/>
<path d="M2517 493 c-14 -13 -7 -42 8 -37 8 4 15 15 15 25 0 19 -11 25 -23 12z"/>
<path d="M1606 458 c-6 -30 -2 -47 9 -36 11 10 17 68 8 68 -6 0 -13 -14 -17
-32z"/>
<path d="M1400 464 c0 -8 5 -12 10 -9 6 4 8 11 5 16 -9 14 -15 11 -15 -7z"/>
<path d="M2495 411 c-7 -12 12 -24 25 -16 11 7 4 25 -10 25 -5 0 -11 -4 -15
-9z"/>
<path d="M2305 401 c-3 -5 -1 -12 5 -16 5 -3 10 1 10 9 0 18 -6 21 -15 7z"/>
<path d="M2268 331 c-4 -25 0 -30 29 -40 18 -7 33 -19 33 -27 0 -19 7 -18 31
4 19 18 19 19 -21 38 -22 10 -40 24 -40 30 0 7 -6 14 -14 17 -9 4 -15 -3 -18
-22z"/>
<path d="M2360 350 c0 -5 5 -10 10 -10 6 0 10 5 10 10 0 6 -4 10 -10 10 -5 0
-10 -4 -10 -10z"/>
</g>
</svg>
