<?xml version="1.0" standalone="no"?>
<!DOCTYPE svg PUBLIC "-//W3C//DTD SVG 20010904//EN"
 "http://www.w3.org/TR/2001/REC-SVG-20010904/DTD/svg10.dtd">
<svg version="1.0" xmlns="http://www.w3.org/2000/svg"
 width="362.000000pt" height="362.000000pt" viewBox="0 0 362.000000 362.000000"
 preserveAspectRatio="xMidYMid meet">
<metadata>
Created by potrace 1.14, written by Peter Selinger 2001-2017
</metadata>
<g transform="translate(0.000000,362.000000) scale(0.100000,-0.100000)"
fill="#000000" stroke="none">
<path d="M2 3278 c3 -334 4 -343 23 -346 11 -1 45 -7 77 -13 106 -21 73 -74
-51 -81 l-52 -3 3 -34 c3 -32 7 -35 68 -56 110 -38 122 -42 204 -60 47 -10 86
-25 99 -38 l20 -20 -24 -20 c-20 -16 -34 -18 -78 -14 -29 3 -74 12 -100 21
-55 17 -180 40 -187 34 -2 -3 -3 -523 -2 -1156 l3 -1151 115 58 c63 31 180 91
260 132 154 80 200 101 402 184 125 51 153 70 246 162 32 31 45 38 66 34 4 -1
22 12 38 30 32 33 47 28 48 -14 0 -10 11 -37 24 -60 28 -50 65 -148 101 -272
15 -49 37 -113 50 -140 13 -28 27 -63 30 -78 6 -22 23 -36 76 -62 38 -19 71
-35 73 -35 3 0 -9 15 -27 33 -18 17 -32 37 -33 42 0 6 -18 48 -41 95 -64 134
-104 268 -102 337 4 117 34 262 69 332 13 27 19 52 16 67 -4 13 0 39 8 58 14
33 13 36 -25 97 -62 102 -72 144 -74 314 -2 110 -7 167 -20 215 -21 72 -24
255 -5 289 5 11 10 50 10 88 0 37 7 95 14 128 8 33 19 92 25 130 6 39 13 79
15 90 2 11 7 47 11 80 16 143 36 188 114 265 71 70 102 86 176 95 33 4 68 12
78 17 10 5 61 9 113 9 51 0 96 3 98 7 7 11 150 3 154 -8 2 -6 11 -10 20 -10
10 0 30 -7 46 -15 16 -9 36 -13 45 -11 9 3 36 -5 61 -17 34 -18 46 -31 53 -58
5 -18 14 -40 20 -48 6 -7 16 -23 22 -35 7 -11 16 -20 22 -19 6 1 8 -9 5 -22
-3 -18 0 -25 11 -25 8 0 29 -21 46 -47 26 -39 30 -53 24 -78 -4 -16 -7 -63 -6
-103 0 -53 -2 -71 -10 -63 -15 15 -38 14 -35 -1 3 -13 -34 -23 -153 -38 -79
-11 -87 -14 -103 -41 -9 -16 -14 -29 -11 -29 4 0 -18 -28 -49 -62 -54 -60 -56
-63 -57 -122 -4 -148 -2 -206 8 -286 9 -74 8 -90 -7 -125 -9 -22 -25 -48 -35
-58 -21 -22 -18 -26 23 -30 17 -2 37 -9 45 -15 8 -7 21 -10 29 -7 8 3 21 -1
28 -9 15 -19 32 -12 23 9 -3 9 1 15 11 15 9 0 13 -6 10 -14 -3 -8 -1 -17 4
-20 5 -3 12 5 14 19 3 14 1 25 -3 25 -17 0 -9 19 11 25 11 3 20 13 20 21 0 8
5 14 10 14 30 0 -14 123 -59 164 -17 16 -21 30 -21 80 1 94 0 98 -22 137 -24
42 -21 90 7 133 23 34 158 98 210 99 59 1 154 -8 162 -16 3 -4 1 -7 -6 -7 -7
0 -10 -4 -6 -9 3 -5 -3 -12 -12 -14 -13 -3 -14 -5 -3 -6 8 0 21 -10 27 -20 19
-31 -5 -43 -44 -21 -18 9 -31 19 -29 21 3 2 -38 4 -90 3 -52 -1 -97 -4 -100
-7 -3 -3 10 -5 29 -5 20 0 43 -4 51 -9 12 -7 -2 -12 -53 -19 -67 -9 -69 -9
-54 8 18 20 6 24 -17 5 -18 -14 -64 -86 -59 -92 4 -3 99 -12 197 -18 23 -1 31
-6 27 -16 -3 -7 -1 -19 5 -26 8 -10 -1 -12 -47 -9 -32 2 -74 8 -93 14 -43 12
-67 13 -54 1 31 -28 235 -48 219 -21 -4 6 5 10 19 10 14 0 26 5 26 10 0 6 7
10 16 10 9 0 22 7 28 15 6 8 22 16 36 17 14 2 30 9 36 17 8 11 13 4 22 -30 14
-58 14 -169 -2 -169 -7 0 -8 -3 0 -8 15 -10 1 -167 -17 -189 -20 -25 -60 -100
-58 -110 1 -4 1 -38 0 -75 -1 -62 -3 -68 -22 -68 -11 0 -18 -4 -14 -10 3 -5
12 -7 20 -3 11 4 15 -2 15 -21 0 -14 -5 -26 -11 -26 -6 0 -9 -6 -6 -14 3 -8 1
-16 -5 -18 -6 -2 -11 -18 -12 -36 -1 -21 -6 -32 -16 -32 -13 0 -65 -81 -65
-101 0 -4 -12 -26 -28 -49 -15 -23 -27 -48 -27 -55 0 -7 -7 -16 -16 -19 -8 -3
-12 -10 -9 -16 3 -5 1 -10 -5 -10 -6 0 -15 -10 -20 -22 -7 -20 -9 -20 -9 -4
-1 15 -4 16 -15 6 -8 -6 -13 -17 -10 -25 3 -7 -3 -16 -15 -20 -12 -3 -21 -13
-21 -20 0 -8 -11 -17 -24 -21 -15 -3 -27 -15 -30 -30 -4 -13 -13 -24 -21 -24
-8 0 -15 -4 -15 -10 0 -5 -6 -10 -14 -10 -8 0 -17 -7 -20 -16 -3 -8 -11 -12
-17 -9 -6 4 -21 -3 -34 -15 -17 -16 -28 -19 -42 -12 -22 11 -115 1 -120 -13
-2 -6 13 -11 34 -10 21 0 38 -4 38 -10 0 -5 -10 -8 -22 -7 -13 2 -23 -1 -23
-7 0 -6 12 -11 28 -12 15 0 38 -2 52 -4 14 -1 61 -6 105 -10 44 -4 83 -12 87
-19 14 -21 8 -68 -15 -115 -13 -25 -23 -54 -21 -63 1 -10 -4 -22 -12 -29 -16
-13 -19 -39 -4 -39 6 0 10 4 10 9 0 5 9 11 20 14 15 4 20 0 20 -14 0 -10 4
-19 10 -19 5 0 7 -7 3 -16 -4 -12 -1 -15 13 -12 11 2 30 24 44 53 14 28 39 69
57 93 17 24 34 49 36 55 6 15 29 -5 35 -30 10 -41 10 -143 1 -143 -6 0 -7 -4
-4 -10 3 -5 -1 -20 -9 -32 -8 -13 -19 -42 -26 -66 -6 -23 -15 -42 -20 -42 -6
0 -10 -5 -10 -11 0 -6 -8 -21 -19 -34 -21 -28 -44 -127 -39 -169 5 -50 25 -41
32 14 6 46 21 86 37 100 3 3 8 13 12 23 4 12 17 17 43 17 21 0 34 -3 31 -7 -4
-3 -2 -12 4 -19 6 -7 12 -33 13 -56 2 -31 7 -44 19 -46 9 -2 20 4 23 12 9 23
21 20 28 -6 5 -19 8 -20 15 -8 5 8 12 31 16 50 4 19 22 52 39 75 17 22 32 42
34 45 2 3 10 -3 17 -14 8 -10 18 -15 24 -11 7 3 8 0 5 -9 -3 -9 -11 -13 -16
-10 -6 4 -8 1 -6 -7 3 -8 1 -24 -3 -36 -5 -12 -4 -25 0 -28 13 -8 62 133 68
195 6 62 -26 227 -57 298 -15 34 -16 41 -5 32 21 -18 19 -3 -6 31 -16 23 -17
29 -6 29 21 0 102 -93 139 -160 26 -46 43 -63 97 -95 36 -21 102 -62 146 -90
77 -49 171 -95 195 -95 6 0 32 -14 57 -31 46 -32 47 -33 31 -98 -2 -8 3 -16
11 -19 10 -3 12 0 8 12 -4 10 -3 15 4 11 6 -4 7 3 3 19 -4 16 -2 26 5 26 6 0
11 -6 11 -12 0 -9 3 -8 10 2 7 12 12 12 22 2 6 -6 20 -12 30 -12 16 0 15 -5
-9 -42 -15 -24 -35 -52 -45 -64 -31 -35 -20 -37 12 -2 17 18 30 37 30 41 0 5
7 4 15 -3 12 -10 15 -10 15 3 0 9 4 18 9 21 5 3 8 -8 7 -24 0 -20 -5 -29 -13
-25 -7 2 -13 0 -13 -5 0 -6 5 -10 11 -10 5 0 7 -5 3 -12 -5 -7 -11 -5 -21 7
-7 11 -13 14 -13 9 0 -6 5 -15 11 -21 8 -8 8 -17 0 -31 -14 -25 -14 -69 -2
-77 6 -3 4 -22 -5 -47 -17 -48 -17 -48 -4 -48 6 0 10 8 10 18 1 16 1 16 14 -1
21 -27 142 -24 172 4 l23 21 -6 -21 c-4 -15 -1 -21 11 -21 14 0 16 30 16 296
l0 296 -56 -51 c-31 -28 -66 -56 -78 -62 -18 -9 -17 -7 4 11 14 12 48 43 77
69 l52 48 0 269 c0 245 -1 267 -15 242 -8 -16 -22 -28 -32 -29 -9 0 -25 -2
-36 -4 -35 -7 -128 14 -143 32 -21 27 -11 167 15 202 18 24 25 26 116 29 l96
3 0 1134 0 1135 -1810 0 -1810 0 2 -342z m1743 229 c24 -8 48 -44 39 -58 -3
-6 -17 -14 -30 -19 -13 -5 -24 -16 -24 -25 0 -8 -4 -15 -10 -15 -5 0 -18 -17
-29 -38 -24 -47 -59 -64 -137 -67 l-62 -3 -17 39 c-15 32 -27 42 -72 59 -29
11 -66 20 -81 20 -15 0 -34 5 -42 10 -22 15 -1 26 85 45 39 8 89 25 111 37 82
45 161 49 269 15z m-875 -1026 c0 -12 -20 -25 -27 -18 -7 7 6 27 18 27 5 0 9
-4 9 -9z m1427 -227 c-3 -3 -12 -4 -19 -1 -8 3 -5 6 6 6 11 1 17 -2 13 -5z
m-57 -29 c0 -8 -9 -15 -20 -15 -20 0 -26 11 -13 23 12 13 33 7 33 -8z m-55
-332 c7 -16 7 -94 1 -101 -2 -1 -17 1 -34 4 -30 6 -32 9 -32 54 0 25 3 50 7
53 13 14 51 7 58 -10z m1189 -69 c18 -17 21 -44 6 -44 -5 0 -10 -7 -10 -15 0
-8 9 -15 20 -15 11 0 20 -4 20 -9 0 -19 -20 -21 -45 -5 -20 13 -23 19 -14 30
9 11 8 14 -5 14 -10 0 -16 8 -16 23 0 39 18 48 44 21z m199 -93 c7 -7 1 -14
-19 -22 -44 -18 -52 -18 -66 -2 -10 12 -9 17 5 28 19 14 64 12 80 -4z m-958
-123 c-3 -29 -5 -61 -5 -70 -1 -10 -5 -18 -11 -18 -5 0 -9 -9 -9 -20 0 -11 -5
-20 -11 -20 -6 0 -9 -6 -6 -13 3 -7 -3 -19 -13 -25 -14 -9 -19 -8 -24 3 -2 7
0 15 5 17 12 4 58 133 59 164 0 18 8 34 16 34 2 0 1 -24 -1 -52z m-54 -191
c-10 -9 -11 -8 -5 6 3 10 9 15 12 12 3 -3 0 -11 -7 -18z m-36 -7 c3 -5 1 -10
-4 -10 -6 0 -11 5 -11 10 0 6 2 10 4 10 3 0 8 -4 11 -10z m656 -69 c20 -16 23
-29 25 -97 3 -89 -11 -124 -49 -124 -13 0 -28 -5 -34 -11 -7 -7 -19 -9 -27 -6
-13 5 -14 11 -4 31 13 30 -5 61 -31 51 -8 -3 -12 -3 -9 1 9 9 -22 39 -41 39
-8 0 -16 6 -19 14 -3 10 2 11 19 6 17 -4 20 -3 10 3 -16 11 -10 74 10 98 18
22 121 19 150 -5z m-216 -81 c14 -16 15 -20 4 -20 -16 0 -39 19 -39 32 0 14
16 9 35 -12z m-648 -142 c-3 -8 -6 -5 -6 6 -1 11 2 17 5 13 3 -3 4 -12 1 -19z
m1287 -582 c-3 -8 -22 -27 -42 -42 l-37 -27 40 41 c46 47 46 47 39 28z m-14
-176 c-6 -11 -20 -25 -33 -31 -18 -10 -17 -6 7 20 34 36 41 39 26 11z m-137
-56 c-4 -12 -8 -13 -14 -3 -9 15 -2 32 11 24 5 -3 6 -13 3 -21z m117 -245 c-7
-11 -14 -18 -17 -15 -3 3 0 12 7 21 18 21 23 19 10 -6z m-150 -15 c0 -8 -4
-12 -10 -9 -5 3 -10 10 -10 16 0 5 5 9 10 9 6 0 10 -7 10 -16z"/>
<path d="M1572 2430 c-41 -10 -50 -18 -28 -26 24 -9 19 -23 -6 -18 l-23 5 22
-10 c12 -5 46 -8 75 -7 29 2 76 4 104 5 57 1 75 19 48 46 -17 16 -131 20 -192
5z"/>
<path d="M1401 2417 c-6 -8 -8 -17 -4 -20 3 -4 0 -13 -6 -21 -11 -13 -8 -13
18 -3 17 6 31 18 31 25 0 9 -6 12 -16 8 -14 -5 -15 -4 -4 9 7 8 8 15 2 15 -5
0 -15 -6 -21 -13z"/>
<path d="M1655 2285 c6 -2 23 -6 38 -9 41 -9 24 -25 -26 -23 -23 1 -55 -6 -72
-15 -16 -9 -45 -24 -63 -32 -50 -23 -36 -41 33 -42 33 -1 68 1 79 5 12 4 38 4
58 1 38 -5 38 -5 24 -32 -8 -16 -11 -28 -7 -28 5 0 14 14 21 30 7 17 20 30 29
30 9 0 22 4 30 9 11 7 10 14 -8 40 -12 17 -19 31 -14 31 4 0 -9 9 -30 20 -20
11 -52 20 -69 19 -18 0 -28 -2 -23 -4z m25 -61 c0 -2 -7 -4 -15 -4 -8 0 -15 4
-15 10 0 5 7 7 15 4 8 -4 15 -8 15 -10z m-60 -36 c0 -3 -9 -4 -20 -1 -16 4
-18 8 -9 20 10 11 14 11 20 1 5 -7 9 -16 9 -20z m165 12 c4 -6 -5 -10 -19 -10
-14 0 -26 5 -26 10 0 6 9 10 19 10 11 0 23 -4 26 -10z"/>
<path d="M1524 2236 c-10 -8 -16 -17 -13 -20 3 -3 14 3 24 14 21 23 17 26 -11
6z"/>
<path d="M1845 1780 c-4 -6 6 -10 22 -10 15 0 39 -3 53 -6 l25 -5 -25 15 c-29
18 -66 21 -75 6z"/>
<path d="M2303 1704 c4 -7 -2 -14 -14 -17 -20 -5 -20 -6 -3 -32 14 -22 15 -28
4 -35 -10 -6 -7 -9 11 -13 l24 -4 -25 -2 c-15 0 -30 -5 -35 -10 -6 -6 -60 -11
-121 -12 -101 -3 -110 -4 -111 -22 -2 -17 3 -19 39 -13 32 5 43 3 54 -11 8
-11 13 -13 14 -5 0 15 36 16 46 1 5 -8 9 -8 14 1 10 16 30 4 30 -18 0 -13 4
-11 16 7 15 20 18 21 26 7 12 -21 -9 -59 -28 -52 -9 4 -14 -2 -14 -15 0 -17
-5 -20 -23 -16 -25 7 -53 -6 -44 -20 3 -5 1 -10 -6 -11 -7 -1 -23 -3 -37 -6
-14 -2 -52 -4 -84 -5 -59 -1 -73 -9 -23 -13 15 -1 27 -7 27 -13 0 -5 4 -4 8 2
4 7 29 14 54 16 43 4 46 3 35 -14 -16 -25 -7 -30 52 -31 35 -1 51 -6 51 -15 0
-7 5 -13 10 -13 6 0 10 9 10 20 0 11 5 20 10 20 6 0 10 9 10 21 0 11 4 18 9
15 5 -3 11 10 14 29 7 42 60 121 87 130 26 8 25 21 -1 36 -17 9 -19 13 -8 20
9 5 10 9 2 9 -6 0 -9 8 -6 19 3 13 -2 21 -16 26 -12 4 -31 16 -43 28 -11 12
-18 17 -15 11z"/>
<path d="M2234 1674 c-2 -28 -1 -28 15 4 9 17 9 22 -1 22 -7 0 -14 -12 -14
-26z"/>
<path d="M2258 1653 c7 -3 16 -2 19 1 4 3 -2 6 -13 5 -11 0 -14 -3 -6 -6z"/>
<path d="M2468 1613 c7 -3 16 -2 19 1 4 3 -2 6 -13 5 -11 0 -14 -3 -6 -6z"/>
<path d="M2435 1590 c-3 -5 -1 -10 4 -10 6 0 11 5 11 10 0 6 -2 10 -4 10 -3 0
-8 -4 -11 -10z"/>
<path d="M1750 1549 c-36 -5 -77 -7 -92 -5 -38 7 -44 -10 -11 -28 15 -8 44
-30 62 -50 19 -20 41 -36 49 -36 7 0 11 -4 8 -9 -3 -5 1 -12 10 -15 25 -10 64
-7 64 5 0 5 -4 8 -9 4 -5 -3 -12 -1 -16 5 -4 6 -11 7 -17 4 -6 -4 -8 -2 -5 3
4 6 -9 21 -28 34 -33 23 -49 55 -22 46 6 -2 17 2 22 10 14 19 60 28 133 25 42
-2 61 1 57 8 -7 12 -113 11 -205 -1z"/>
<path d="M2125 1430 c-3 -5 -2 -10 4 -10 5 0 13 5 16 10 3 6 2 10 -4 10 -5 0
-13 -4 -16 -10z"/>
<path d="M1930 1420 c-11 -8 -7 -10 18 -8 19 1 36 6 38 10 7 11 -38 10 -56 -2z"/>
<path d="M2013 1423 c9 -2 23 -2 30 0 6 3 -1 5 -18 5 -16 0 -22 -2 -12 -5z"/>
<path d="M1840 930 c-8 -5 -10 -10 -5 -11 6 0 18 -2 28 -4 15 -3 16 -1 6 11
-14 16 -10 16 -29 4z"/>
<path d="M2808 614 c-4 -5 0 -20 8 -34 7 -14 13 -18 13 -10 -1 24 -15 54 -21
44z"/>
<path d="M1296 368 c3 -5 10 -6 15 -3 13 9 11 12 -6 12 -8 0 -12 -4 -9 -9z"/>
<path d="M1205 338 c-33 -17 -98 -42 -145 -54 -111 -31 -145 -45 -130 -54 14
-8 50 -1 50 9 0 4 8 8 18 9 32 3 59 12 112 34 34 15 83 18 97 6 13 -11 58 14
46 25 -3 4 0 7 8 7 8 0 14 10 14 25 0 14 -2 25 -5 25 -3 -1 -32 -15 -65 -32z"/>
<path d="M3350 315 c-10 -12 -10 -15 4 -15 9 0 16 7 16 15 0 8 -2 15 -4 15 -2
0 -9 -7 -16 -15z"/>
<path d="M2613 255 c0 -8 4 -12 9 -9 5 3 6 10 3 15 -9 13 -12 11 -12 -6z"/>
<path d="M1594 223 c9 -18 16 -38 16 -45 0 -7 9 -19 19 -25 11 -7 29 -43 42
-83 22 -68 39 -90 39 -51 0 10 -7 37 -15 60 -8 23 -12 49 -9 59 5 14 4 15 -5
2 -9 -13 -11 -12 -11 5 0 12 -21 41 -46 65 -44 43 -46 44 -30 13z"/>
<path d="M2597 223 c-4 -3 -7 -18 -7 -32 0 -21 -2 -23 -10 -11 -5 8 -10 11
-11 5 0 -5 -2 -20 -3 -33 -3 -21 -2 -22 15 -4 9 10 20 33 24 50 7 32 4 38 -8
25z"/>
<path d="M2780 132 c-30 -32 -81 -72 -112 -91 -32 -18 -58 -35 -58 -37 0 -3
34 -3 75 -2 50 2 75 7 75 15 0 6 4 14 9 17 5 4 7 -3 4 -14 -4 -15 0 -20 16
-20 12 0 21 6 21 16 0 8 5 12 10 9 6 -3 10 -2 10 4 0 6 9 15 21 21 16 9 24 8
39 -5 17 -15 19 -15 28 1 9 16 12 16 33 3 13 -8 31 -13 39 -13 8 1 21 2 29 3
20 1 -24 47 -71 74 -21 11 -38 26 -38 33 0 16 -19 30 -50 37 -21 4 -35 -5 -80
-51z"/>
<path d="M3195 40 c3 -5 8 -10 11 -10 2 0 4 5 4 10 0 6 -5 10 -11 10 -5 0 -7
-4 -4 -10z"/>
</g>
</svg>
